<svg id="Layer_1" data-name="Layer 1" xmlns="http://www.w3.org/2000/svg" viewBox="0 0 459.69 459.69"><defs><style>.cls-1{fill:#050811;stroke:#c09059;stroke-miterlimit:10;stroke-width:10px;}.cls-2{fill:#c09059;fill-rule:evenodd;}</style></defs><circle class="cls-1" cx="229.85" cy="229.85" r="224.85" transform="translate(-95.21 229.85) rotate(-45)"/><path class="cls-2" d="M96.08,224.28c61.85-25.93,136.67-62.85,201.52-87.79,59.85-21.94,58.86-16,49.88,43.9-7,47.88-15,95.77-23,143.65-3,22.95-15,34.92-39.9,20.95l-77.82-54.86c-11-9-8-16,1-24.94l71.83-67.84c18.95-19,10-25.94-12-11L168.9,253.21c-14,10-28.93,10-44.89,5l-33.92-12c-21.94-8-5-17,6-21.95Z"/></svg>