<svg id="Layer_1" data-name="Layer 1" xmlns="http://www.w3.org/2000/svg" viewBox="0 0 459.7 459.69"><defs><style>.cls-1{fill:#050811;stroke:#c09059;stroke-miterlimit:10;stroke-width:10px;}.cls-2{fill:#c09059;fill-rule:evenodd;}</style></defs><circle class="cls-1" cx="229.85" cy="229.85" r="224.85" transform="translate(-95.21 229.85) rotate(-45)"/><path class="cls-2" d="M179.3,164.86c7.95-5.05,13-1.44,15.89,6.5l7.22,18.78s5.05,10.1-7.94,20.21c-2.17,1.45-2.17,1.45-1.45,5.06,2.89,8.66,14.44,34.65,51.27,54.87,3.61,2.17,4.33,2.17,7.94-.72l9.39-9.39c6.5-5.77,10.11-7.94,15.88-3.61,4.33,2.89,8.67,6.5,13,9.39,4.33,3.61,11.55,7.94,4.33,16.61l-6.5,7.94c-9.38,11.55-17.33,12.27-29.6,9.39C211.8,287.61,177.14,254.4,162,207.46c-5.06-18.05,2.16-33.21,17.32-42.6Zm50.55-77.25a142.24,142.24,0,0,1,0,284.48c-21.66,0-41.88-4.33-59.93-13l-75.82,13L104.21,297l-.72-1.45A142.55,142.55,0,0,1,229.85,87.61ZM140.31,340.32l20.22-3.61,12.28-2.17a117.38,117.38,0,0,0,57,14.44A119.14,119.14,0,1,0,110.71,229.85c0,23.82,7.22,45.49,18.77,64.26L128,304.94l-2.89,21.66L123,343.21Z"/></svg>